<svg width="199" height="94" viewBox="0 0 199 94" fill="none" xmlns="http://www.w3.org/2000/svg">
<g opacity="0.3">
<ellipse cx="5.45009" cy="5.39195" rx="4.74306" ry="4.73766" fill="#1565D8"/>
<ellipse cx="5.45009" cy="26.2377" rx="4.74306" ry="4.73766" fill="#1565D8"/>
<ellipse cx="5.45009" cy="47.0834" rx="4.74306" ry="4.73766" fill="#1565D8"/>
<ellipse cx="5.45009" cy="67.9291" rx="4.74306" ry="4.73766" fill="#1565D8"/>
<ellipse cx="5.45009" cy="88.7748" rx="4.74306" ry="4.73766" fill="#1565D8"/>
<ellipse cx="26.3195" cy="5.39195" rx="4.74306" ry="4.73766" fill="#1565D8"/>
<ellipse cx="26.3192" cy="26.2377" rx="4.74306" ry="4.73766" fill="#1565D8"/>
<ellipse cx="26.3192" cy="47.0834" rx="4.74306" ry="4.73766" fill="#1565D8"/>
<ellipse cx="26.3192" cy="67.9291" rx="4.74306" ry="4.73766" fill="#1565D8"/>
<ellipse cx="26.3192" cy="88.7748" rx="4.74306" ry="4.73766" fill="#1565D8"/>
<ellipse cx="47.1889" cy="5.39195" rx="4.74306" ry="4.73766" fill="#1565D8"/>
<ellipse cx="47.1889" cy="26.2377" rx="4.74306" ry="4.73766" fill="#1565D8"/>
<ellipse cx="47.1889" cy="47.0834" rx="4.74306" ry="4.73766" fill="#1565D8"/>
<ellipse cx="47.1889" cy="67.9291" rx="4.74306" ry="4.73766" fill="#1565D8"/>
<ellipse cx="47.1889" cy="88.7748" rx="4.74306" ry="4.73766" fill="#1565D8"/>
<ellipse cx="68.0582" cy="5.39195" rx="4.74306" ry="4.73766" fill="#1565D8"/>
<ellipse cx="68.0585" cy="26.2377" rx="4.74306" ry="4.73766" fill="#1565D8"/>
<ellipse cx="68.0585" cy="47.0834" rx="4.74306" ry="4.73766" fill="#1565D8"/>
<ellipse cx="68.0585" cy="67.9291" rx="4.74306" ry="4.73766" fill="#1565D8"/>
<ellipse cx="68.0585" cy="88.7748" rx="4.74306" ry="4.73766" fill="#1565D8"/>
<ellipse cx="88.9279" cy="5.39195" rx="4.74306" ry="4.73766" fill="#1565D8"/>
<ellipse cx="88.9276" cy="26.2377" rx="4.74306" ry="4.73766" fill="#1565D8"/>
<ellipse cx="88.9276" cy="47.0834" rx="4.74306" ry="4.73766" fill="#1565D8"/>
<ellipse cx="88.9276" cy="67.9291" rx="4.74306" ry="4.73766" fill="#1565D8"/>
<ellipse cx="88.9276" cy="88.7748" rx="4.74306" ry="4.73766" fill="#1565D8"/>
<ellipse cx="109.797" cy="5.39195" rx="4.74306" ry="4.73766" fill="#1565D8"/>
<ellipse cx="109.797" cy="26.2377" rx="4.74306" ry="4.73766" fill="#1565D8"/>
<ellipse cx="109.797" cy="47.0834" rx="4.74306" ry="4.73766" fill="#1565D8"/>
<ellipse cx="109.797" cy="67.9291" rx="4.74306" ry="4.73766" fill="#1565D8"/>
<ellipse cx="109.797" cy="88.7748" rx="4.74306" ry="4.73766" fill="#1565D8"/>
<ellipse cx="130.667" cy="5.39195" rx="4.74306" ry="4.73766" fill="#1565D8"/>
<ellipse cx="130.667" cy="26.2377" rx="4.74306" ry="4.73766" fill="#1565D8"/>
<ellipse cx="130.667" cy="47.0834" rx="4.74306" ry="4.73766" fill="#1565D8"/>
<ellipse cx="130.667" cy="67.9291" rx="4.74306" ry="4.73766" fill="#1565D8"/>
<ellipse cx="130.667" cy="88.7748" rx="4.74306" ry="4.73766" fill="#1565D8"/>
<ellipse cx="151.536" cy="5.39195" rx="4.74306" ry="4.73766" fill="#1565D8"/>
<ellipse cx="151.536" cy="26.2377" rx="4.74306" ry="4.73766" fill="#1565D8"/>
<ellipse cx="151.536" cy="47.0834" rx="4.74306" ry="4.73766" fill="#1565D8"/>
<ellipse cx="151.536" cy="67.9291" rx="4.74306" ry="4.73766" fill="#1565D8"/>
<ellipse cx="151.536" cy="88.7748" rx="4.74306" ry="4.73766" fill="#1565D8"/>
<ellipse cx="172.406" cy="5.39195" rx="4.74306" ry="4.73766" fill="#1565D8"/>
<ellipse cx="172.406" cy="26.2377" rx="4.74306" ry="4.73766" fill="#1565D8"/>
<ellipse cx="172.406" cy="47.0834" rx="4.74306" ry="4.73766" fill="#1565D8"/>
<ellipse cx="172.406" cy="67.9291" rx="4.74306" ry="4.73766" fill="#1565D8"/>
<ellipse cx="172.406" cy="88.7748" rx="4.74306" ry="4.73766" fill="#1565D8"/>
<ellipse cx="193.275" cy="5.39195" rx="4.74306" ry="4.73766" fill="#1565D8"/>
<ellipse cx="193.275" cy="26.2377" rx="4.74306" ry="4.73766" fill="#1565D8"/>
<ellipse cx="193.275" cy="47.0834" rx="4.74306" ry="4.73766" fill="#1565D8"/>
<ellipse cx="193.275" cy="67.9291" rx="4.74306" ry="4.73766" fill="#1565D8"/>
<ellipse cx="193.275" cy="88.7748" rx="4.74306" ry="4.73766" fill="#1565D8"/>
</g>
</svg>
