<svg width="144" height="144" viewBox="0 0 144 144" fill="none" xmlns="http://www.w3.org/2000/svg">
<path d="M122 85C122 112.614 99.6142 135 72 135C44.3858 135 22 112.614 22 85C22 57.3858 44.3858 35 72 35C99.6142 35 122 57.3858 122 85Z" fill="#F5F5F5"/>
<path d="M102.683 115.534H42.6788C40.9064 115.534 39.4688 114.097 39.4688 112.324V12.2101C39.4688 10.4376 40.9064 9 42.6788 9H102.683C104.456 9 105.893 10.4376 105.893 12.2101V112.324C105.893 114.097 104.456 115.534 102.683 115.534Z" fill="#407BFF"/>
<path d="M102.683 9H94.754V115.534H102.683C104.456 115.534 105.893 114.097 105.893 112.324V12.2101C105.893 10.4376 104.456 9 102.683 9Z" fill="#2D56B3"/>
<path d="M39.4688 21.4102H105.893V103.124H39.4688V21.4102Z" fill="#D9E5FF"/>
<path d="M97.4362 76.4697C100.442 76.4697 103.302 77.0941 105.893 78.2195V21.4102H94.754V76.6376C95.6319 76.5268 96.5273 76.4697 97.4362 76.4697Z" fill="#D9E5FF"/>
<path d="M95.3205 68.4706H50.0414C48.9655 68.4706 48.0927 67.5986 48.0927 66.5228V48.1637C48.0927 47.0878 48.9655 46.2158 50.0414 46.2158H95.3205C96.3972 46.2158 97.2692 47.0878 97.2692 48.1637V66.5228C97.2692 67.5986 96.3964 68.4706 95.3205 68.4706Z" fill="#EDEDED"/>
<path d="M95.3206 46.2158H86.1293V68.4706H95.3206C96.3973 68.4706 97.2693 67.5986 97.2693 66.5219V48.1637C97.2693 47.0878 96.3965 46.2158 95.3206 46.2158Z" fill="#EDEDED"/>
<path d="M75.2972 13.2832H68.2149C67.2977 13.2832 66.5549 14.0259 66.5549 14.9432C66.5549 15.8596 67.2977 16.6032 68.2149 16.6032H75.2972C76.2137 16.6032 76.9564 15.8596 76.9564 14.9432C76.9564 14.0259 76.2137 13.2832 75.2972 13.2832Z" fill="#EDEDED"/>
<path d="M64.1221 54.7706C64.0365 54.7706 61.4315 55.6535 61.4315 55.6535L61.5389 53.2424C61.518 52.6398 61.0656 52.3604 60.5486 52.3604C60.0325 52.3604 59.5802 52.6398 59.5592 53.2424L59.6666 55.6325C59.6666 55.6325 57.0616 54.7715 56.997 54.7715C56.4162 54.7715 55.9857 55.3094 55.9857 55.8046C55.9857 56.2569 56.1796 56.6438 56.6101 56.7302L58.9994 57.4193L57.4921 59.5282C57.3629 59.6793 57.2555 59.8732 57.2555 60.1098C57.2555 60.7124 57.9873 61.0783 58.4178 61.0783C58.6763 61.0783 58.892 61.0137 59.064 60.7342L60.5486 58.4951L62.0131 60.7124C62.2279 61.0347 62.5074 61.0783 62.7231 61.0783C63.261 61.0783 63.8426 60.6688 63.8426 60.0662C63.8426 59.8723 63.778 59.6575 63.6916 59.5501L62.1205 57.311L64.4452 56.7294C64.8967 56.6438 65.0906 56.2779 65.0906 55.912C65.0914 55.374 64.7037 54.7706 64.1221 54.7706Z" fill="#7CC788"/>
<path d="M77.0798 54.7706C76.9942 54.7706 74.3893 55.6535 74.3893 55.6535L74.4967 53.2424C74.4757 52.6398 74.0234 52.3604 73.5072 52.3604C72.9903 52.3604 72.5379 52.6398 72.5169 53.2424L72.6244 55.6325C72.6244 55.6325 70.0194 54.7715 69.9548 54.7715C69.374 54.7715 68.9435 55.3094 68.9435 55.8046C68.9435 56.2569 69.1373 56.6438 69.5679 56.7302L71.9572 57.4193L70.4499 59.5282C70.3215 59.6793 70.2132 59.8732 70.2132 60.1098C70.2132 60.7124 70.9459 61.0783 71.3764 61.0783C71.6341 61.0783 71.8497 61.0137 72.0218 60.7342L73.5072 58.4951L74.9709 60.7124C75.1857 61.0347 75.466 61.0783 75.6808 61.0783C76.2196 61.0783 76.8004 60.6688 76.8004 60.0662C76.8004 59.8723 76.7358 59.6575 76.6493 59.5501L75.0783 57.311L77.403 56.7294C77.8553 56.6438 78.0492 56.2779 78.0492 55.912C78.0492 55.374 77.6614 54.7706 77.0798 54.7706Z" fill="#7CC788"/>
<path d="M90.0384 54.7706C89.952 54.7706 87.3479 55.6535 87.3479 55.6535L87.4553 53.2424C87.4335 52.6398 86.982 52.3604 86.465 52.3604C85.9489 52.3604 85.4965 52.6398 85.4747 53.2424L85.5821 55.6325C85.5821 55.6325 82.978 54.7715 82.9134 54.7715C82.3318 54.7715 81.9012 55.3094 81.9012 55.8046C81.9012 56.2569 82.0951 56.6438 82.5256 56.7302L84.9149 57.4193L83.4085 59.5282C83.2793 59.6793 83.1718 59.8732 83.1718 60.1098C83.1718 60.7124 83.9037 61.0783 84.3342 61.0783C84.5927 61.0783 84.8075 61.0137 84.9796 60.7342L86.465 58.4951L87.9286 60.7124C88.1443 61.0347 88.4238 61.0783 88.6386 61.0783C89.1774 61.0783 89.7581 60.6688 89.7581 60.0662C89.7581 59.8723 89.6935 59.6575 89.6071 59.5501L88.036 57.311L90.3607 56.7294C90.8131 56.6438 91.0069 56.2779 91.0069 55.912C91.0069 55.374 90.6192 54.7706 90.0384 54.7706Z" fill="#7CC788"/>
</svg>
