<svg width="74" height="50" viewBox="0 0 74 50" fill="none" xmlns="http://www.w3.org/2000/svg">
<rect y="3" width="66.8" height="35.7528" rx="17.8764" fill="#24D0BD"/>
<g filter="url(#filter0_d_2166_1550)">
<ellipse cx="49.975" cy="20.78" rx="15.975" ry="16.78" fill="#29D6C2"/>
</g>
<path d="M44.8417 26.4847C44.7416 25.8184 44.835 24.8472 45.3851 23.3312C46.0574 21.4872 46.7165 20.0399 48.1042 18.0978C49.4453 16.2249 50.3531 15.2751 52.1536 13.8661C54.1864 12.2745 55.3833 12.3138 55.9171 12.4787C56.5549 12.6746 56.9741 13.0424 57.4091 13.5338C57.6524 13.8135 57.8703 14.1154 58.0601 14.4357C58.0795 14.4677 58.0979 14.4974 58.1144 14.5239C58.2137 14.6817 58.364 14.921 58.2933 15.2632C58.2469 15.4915 58.1145 15.709 57.8698 16.0551C57.3687 16.7646 56.1727 17.8112 55.5697 18.2216C55.1632 18.4974 54.8949 18.6798 54.5706 18.7289C54.1909 18.7859 53.8685 18.6333 53.5166 18.4422C53.4505 18.4064 53.3872 18.3705 53.3257 18.3358C52.955 18.1259 52.8506 18.0833 52.6851 18.1465C52.3527 18.2744 51.4143 18.9959 50.6502 20.0648C49.8861 21.1337 49.5233 22.2348 49.5031 22.6012C49.4925 22.7906 49.5654 22.8826 49.8796 23.1956C49.9247 23.2405 49.9713 23.2866 50.0183 23.335C50.3359 23.6594 50.5652 23.9189 50.6225 24.3005L50.6228 24.3025C50.6728 24.6347 50.5756 24.9401 50.4156 25.4459C50.2068 26.1056 49.6049 27.6311 49.0942 28.3373C48.8461 28.6807 48.6841 28.8758 48.4865 28.9889C48.1889 29.1593 47.9238 29.0808 47.7467 29.0303C47.7172 29.0218 47.685 29.0123 47.6493 29.0027C47.2969 28.9087 46.9533 28.7817 46.623 28.6232C46.0412 28.3396 45.5777 28.0333 45.2079 27.4612C45.0157 27.1678 44.8905 26.8339 44.8417 26.4847Z" fill="white"/>
<defs>
<filter id="filter0_d_2166_1550" x="26" y="0" width="47.95" height="49.5601" filterUnits="userSpaceOnUse" color-interpolation-filters="sRGB">
<feFlood flood-opacity="0" result="BackgroundImageFix"/>
<feColorMatrix in="SourceAlpha" type="matrix" values="0 0 0 0 0 0 0 0 0 0 0 0 0 0 0 0 0 0 127 0" result="hardAlpha"/>
<feOffset dy="4"/>
<feGaussianBlur stdDeviation="4"/>
<feColorMatrix type="matrix" values="0 0 0 0 0 0 0 0 0 0 0 0 0 0 0 0 0 0 0.1 0"/>
<feBlend mode="normal" in2="BackgroundImageFix" result="effect1_dropShadow_2166_1550"/>
<feBlend mode="normal" in="SourceGraphic" in2="effect1_dropShadow_2166_1550" result="shape"/>
</filter>
</defs>
</svg>
