<svg width="125" height="115" viewBox="0 0 125 115" fill="none" xmlns="http://www.w3.org/2000/svg">
<g filter="url(#filter0_d_1291_5205)">
<mask id="mask0_1291_5205" style="mask-type:alpha" maskUnits="userSpaceOnUse" x="24" y="39" width="68" height="37">
<rect x="24" y="39" width="68" height="37" rx="18.5" fill="white"/>
</mask>
<g mask="url(#mask0_1291_5205)">
<mask id="mask1_1291_5205" style="mask-type:alpha" maskUnits="userSpaceOnUse" x="23" y="39" width="71" height="39">
<rect x="23.5903" y="39" width="69.6385" height="38.2907" fill="white"/>
</mask>
<g mask="url(#mask1_1291_5205)">
<rect x="23.5903" y="39" width="68.4096" height="37" rx="18.5" fill="#3C5B97"/>
</g>
</g>
<g filter="url(#filter1_d_1291_5205)">
<ellipse cx="74.3856" cy="57.4998" rx="15.9759" ry="16.7791" fill="#3C5B97"/>
</g>
<path fill-rule="evenodd" clip-rule="evenodd" d="M75.4662 64.3837H72.5605V57.8825H71.1084V55.3773H72.5605V53.8744C72.5605 51.8321 73.3804 50.6162 75.7097 50.6162H77.6488V53.1215H76.4372C75.5302 53.1215 75.4699 53.4712 75.4699 54.1246L75.4662 55.3773H77.6626L77.4053 57.8825H75.4662V64.3837Z" fill="white"/>
</g>
<path d="M33.5224 57.878C33.7837 57.822 34.024 57.794 34.2434 57.794C34.5047 57.794 34.7357 57.8325 34.9364 57.9095C35.137 57.9865 35.3039 58.0927 35.4369 58.228C35.5722 58.3633 35.6737 58.5232 35.7414 58.7075C35.8114 58.8918 35.8464 59.0925 35.8464 59.3095C35.8464 59.5755 35.7997 59.8158 35.7064 60.0305C35.6154 60.2452 35.4882 60.4295 35.3249 60.5835C35.1639 60.7352 34.9737 60.8518 34.7544 60.9335C34.535 61.0152 34.2982 61.056 34.0439 61.056C33.8969 61.056 33.7557 61.0408 33.6204 61.0105C33.485 60.9825 33.3579 60.944 33.2389 60.895C33.1222 60.846 33.0137 60.79 32.9134 60.727C32.813 60.664 32.7244 60.5975 32.6474 60.5275L32.8399 60.2615C32.8819 60.2008 32.9367 60.1705 33.0044 60.1705C33.051 60.1705 33.1035 60.1892 33.1619 60.2265C33.2202 60.2615 33.2914 60.3012 33.3754 60.3455C33.4594 60.3898 33.5574 60.4307 33.6694 60.468C33.7837 60.503 33.919 60.5205 34.0754 60.5205C34.2504 60.5205 34.4079 60.4925 34.5479 60.4365C34.6879 60.3805 34.808 60.3012 34.9084 60.1985C35.0087 60.0935 35.0857 59.9687 35.1394 59.824C35.193 59.6793 35.2199 59.5172 35.2199 59.3375C35.2199 59.1812 35.1965 59.04 35.1499 58.914C35.1055 58.788 35.0367 58.6807 34.9434 58.592C34.8524 58.5033 34.738 58.4345 34.6004 58.3855C34.4627 58.3365 34.3017 58.312 34.1174 58.312C33.9914 58.312 33.8595 58.3225 33.7219 58.3435C33.5865 58.3645 33.4477 58.3983 33.3054 58.445L32.9134 58.3295L33.3159 55.9845H35.6924V56.2575C35.6924 56.3462 35.6644 56.4197 35.6084 56.478C35.5547 56.534 35.4614 56.562 35.3284 56.562H33.7534L33.5224 57.878ZM40.2204 60.4085C40.2881 60.4085 40.3418 60.4283 40.3814 60.468C40.4211 60.5077 40.4409 60.559 40.4409 60.622V61H37.0949V60.7865C37.0949 60.7422 37.1043 60.6967 37.1229 60.65C37.1416 60.6033 37.1708 60.5602 37.2104 60.5205L38.8169 58.907C38.9499 58.7717 39.0713 58.6422 39.1809 58.5185C39.2906 58.3925 39.3839 58.2665 39.4609 58.1405C39.5379 58.0145 39.5974 57.8873 39.6394 57.759C39.6814 57.6283 39.7024 57.4895 39.7024 57.3425C39.7024 57.1955 39.6791 57.0672 39.6324 56.9575C39.5858 56.8455 39.5216 56.7533 39.4399 56.681C39.3606 56.6087 39.2661 56.555 39.1564 56.52C39.0468 56.4827 38.9289 56.464 38.8029 56.464C38.6746 56.464 38.5568 56.4827 38.4494 56.52C38.3421 56.5573 38.2464 56.6098 38.1624 56.6775C38.0808 56.7428 38.0119 56.821 37.9559 56.912C37.8999 57.003 37.8603 57.1033 37.8369 57.213C37.8089 57.2947 37.7704 57.3495 37.7214 57.3775C37.6748 57.4032 37.6083 57.4102 37.5219 57.3985L37.1964 57.3425C37.2291 57.1138 37.2921 56.912 37.3854 56.737C37.4811 56.5597 37.6001 56.4115 37.7424 56.2925C37.8871 56.1735 38.0516 56.0837 38.2359 56.023C38.4203 55.96 38.6198 55.9285 38.8344 55.9285C39.0468 55.9285 39.2451 55.96 39.4294 56.023C39.6138 56.086 39.7736 56.1782 39.9089 56.2995C40.0443 56.4185 40.1504 56.5643 40.2274 56.737C40.3044 56.9097 40.3429 57.1057 40.3429 57.325C40.3429 57.5117 40.3149 57.6855 40.2589 57.8465C40.2029 58.0052 40.1271 58.1568 40.0314 58.3015C39.9358 58.4462 39.8249 58.5873 39.6989 58.725C39.5753 58.8627 39.4434 59.0015 39.3034 59.1415L37.9804 60.4925C38.0738 60.4668 38.1683 60.447 38.2639 60.433C38.3596 60.4167 38.4518 60.4085 38.5404 60.4085H40.2204ZM41.665 60.615C41.665 60.5543 41.6755 60.4972 41.6965 60.4435C41.7198 60.3898 41.7501 60.3432 41.7875 60.3035C41.8271 60.2638 41.8738 60.2323 41.9275 60.209C41.9811 60.1857 42.0383 60.174 42.099 60.174C42.1596 60.174 42.2168 60.1857 42.2705 60.209C42.3241 60.2323 42.3708 60.2638 42.4105 60.3035C42.4501 60.3432 42.4816 60.3898 42.505 60.4435C42.5283 60.4972 42.54 60.5543 42.54 60.615C42.54 60.678 42.5283 60.7363 42.505 60.79C42.4816 60.8413 42.4501 60.8868 42.4105 60.9265C42.3708 60.9662 42.3241 60.9965 42.2705 61.0175C42.2168 61.0408 42.1596 61.0525 42.099 61.0525C42.0383 61.0525 41.9811 61.0408 41.9275 61.0175C41.8738 60.9965 41.8271 60.9662 41.7875 60.9265C41.7501 60.8868 41.7198 60.8413 41.6965 60.79C41.6755 60.7363 41.665 60.678 41.665 60.615ZM44.6478 57.878C44.9091 57.822 45.1494 57.794 45.3688 57.794C45.6301 57.794 45.8611 57.8325 46.0618 57.9095C46.2624 57.9865 46.4293 58.0927 46.5623 58.228C46.6976 58.3633 46.7991 58.5232 46.8668 58.7075C46.9368 58.8918 46.9718 59.0925 46.9718 59.3095C46.9718 59.5755 46.9251 59.8158 46.8318 60.0305C46.7408 60.2452 46.6136 60.4295 46.4503 60.5835C46.2893 60.7352 46.0991 60.8518 45.8798 60.9335C45.6604 61.0152 45.4236 61.056 45.1693 61.056C45.0223 61.056 44.8811 61.0408 44.7458 61.0105C44.6104 60.9825 44.4833 60.944 44.3643 60.895C44.2476 60.846 44.1391 60.79 44.0388 60.727C43.9384 60.664 43.8498 60.5975 43.7728 60.5275L43.9653 60.2615C44.0073 60.2008 44.0621 60.1705 44.1298 60.1705C44.1764 60.1705 44.2289 60.1892 44.2873 60.2265C44.3456 60.2615 44.4168 60.3012 44.5008 60.3455C44.5848 60.3898 44.6828 60.4307 44.7948 60.468C44.9091 60.503 45.0444 60.5205 45.2008 60.5205C45.3758 60.5205 45.5333 60.4925 45.6733 60.4365C45.8133 60.3805 45.9334 60.3012 46.0338 60.1985C46.1341 60.0935 46.2111 59.9687 46.2648 59.824C46.3184 59.6793 46.3453 59.5172 46.3453 59.3375C46.3453 59.1812 46.3219 59.04 46.2753 58.914C46.2309 58.788 46.1621 58.6807 46.0688 58.592C45.9778 58.5033 45.8634 58.4345 45.7258 58.3855C45.5881 58.3365 45.4271 58.312 45.2428 58.312C45.1168 58.312 44.9849 58.3225 44.8473 58.3435C44.7119 58.3645 44.5731 58.3983 44.4308 58.445L44.0388 58.3295L44.4413 55.9845H46.8178V56.2575C46.8178 56.3462 46.7898 56.4197 46.7338 56.478C46.6801 56.534 46.5868 56.562 46.4538 56.562H44.8788L44.6478 57.878ZM52.6593 57.1955C52.6593 57.3915 52.629 57.5677 52.5683 57.724C52.5077 57.878 52.426 58.0087 52.3233 58.116C52.223 58.221 52.1052 58.3015 51.9698 58.3575C51.8368 58.4135 51.6957 58.4415 51.5463 58.4415C51.39 58.4415 51.2442 58.4135 51.1088 58.3575C50.9735 58.3015 50.8557 58.221 50.7553 58.116C50.6573 58.0087 50.5803 57.878 50.5243 57.724C50.4683 57.5677 50.4403 57.3915 50.4403 57.1955C50.4403 56.9948 50.4683 56.8163 50.5243 56.66C50.5803 56.5037 50.6573 56.3718 50.7553 56.2645C50.8557 56.1572 50.9735 56.0755 51.1088 56.0195C51.2442 55.9635 51.39 55.9355 51.5463 55.9355C51.705 55.9355 51.852 55.9635 51.9873 56.0195C52.1227 56.0755 52.2405 56.1572 52.3408 56.2645C52.4412 56.3718 52.5193 56.5037 52.5753 56.66C52.6313 56.8163 52.6593 56.9948 52.6593 57.1955ZM52.1763 57.1955C52.1763 57.0415 52.16 56.9108 52.1273 56.8035C52.0947 56.6962 52.0492 56.6087 51.9908 56.541C51.9348 56.471 51.8683 56.4208 51.7913 56.3905C51.7143 56.3602 51.6327 56.345 51.5463 56.345C51.46 56.345 51.3795 56.3602 51.3048 56.3905C51.2302 56.4208 51.1648 56.471 51.1088 56.541C51.0528 56.6087 51.0085 56.6962 50.9758 56.8035C50.9432 56.9108 50.9268 57.0415 50.9268 57.1955C50.9268 57.3472 50.9432 57.4767 50.9758 57.584C51.0085 57.689 51.0528 57.7753 51.1088 57.843C51.1648 57.9083 51.2302 57.9562 51.3048 57.9865C51.3795 58.0145 51.46 58.0285 51.5463 58.0285C51.6327 58.0285 51.7143 58.0145 51.7913 57.9865C51.8683 57.9562 51.9348 57.9083 51.9908 57.843C52.0492 57.7753 52.0947 57.689 52.1273 57.584C52.16 57.4767 52.1763 57.3472 52.1763 57.1955ZM54.4338 56.0895C54.4572 56.0615 54.484 56.037 54.5143 56.016C54.547 55.995 54.5902 55.9845 54.6438 55.9845H55.0953L51.4273 60.8985C51.4063 60.9288 51.3795 60.9533 51.3468 60.972C51.3142 60.9907 51.2745 61 51.2278 61H50.7693L54.4338 56.0895ZM55.4348 59.817C55.4348 60.013 55.4045 60.188 55.3438 60.342C55.2832 60.496 55.2015 60.6267 55.0988 60.734C54.9985 60.839 54.8807 60.9195 54.7453 60.9755C54.6123 61.0315 54.4712 61.0595 54.3218 61.0595C54.1632 61.0595 54.0162 61.0315 53.8808 60.9755C53.7478 60.9195 53.6312 60.839 53.5308 60.734C53.4328 60.6267 53.3558 60.496 53.2998 60.342C53.2438 60.188 53.2158 60.013 53.2158 59.817C53.2158 59.6163 53.2438 59.4378 53.2998 59.2815C53.3558 59.1228 53.4328 58.9898 53.5308 58.8825C53.6312 58.7752 53.7478 58.6935 53.8808 58.6375C54.0162 58.5815 54.1632 58.5535 54.3218 58.5535C54.4782 58.5535 54.624 58.5815 54.7593 58.6375C54.897 58.6935 55.0148 58.7752 55.1128 58.8825C55.2132 58.9898 55.2913 59.1228 55.3473 59.2815C55.4057 59.4378 55.4348 59.6163 55.4348 59.817ZM54.9518 59.817C54.9518 59.663 54.9355 59.5323 54.9028 59.425C54.8702 59.3153 54.8247 59.2267 54.7663 59.159C54.7103 59.0913 54.6438 59.0423 54.5668 59.012C54.4898 58.9817 54.4082 58.9665 54.3218 58.9665C54.2355 58.9665 54.1538 58.9817 54.0768 59.012C54.0022 59.0423 53.9368 59.0913 53.8808 59.159C53.8248 59.2267 53.7805 59.3153 53.7478 59.425C53.7175 59.5323 53.7023 59.663 53.7023 59.817C53.7023 59.9687 53.7175 60.097 53.7478 60.202C53.7805 60.307 53.8248 60.3933 53.8808 60.461C53.9368 60.5263 54.0022 60.5742 54.0768 60.6045C54.1538 60.6325 54.2355 60.6465 54.3218 60.6465C54.4082 60.6465 54.4898 60.6325 54.5668 60.6045C54.6438 60.5742 54.7103 60.5263 54.7663 60.461C54.8247 60.3933 54.8702 60.307 54.9028 60.202C54.9355 60.097 54.9518 59.9687 54.9518 59.817Z" fill="white"/>
<defs>
<filter id="filter0_d_1291_5205" x="0" y="27" width="116" height="85" filterUnits="userSpaceOnUse" color-interpolation-filters="sRGB">
<feFlood flood-opacity="0" result="BackgroundImageFix"/>
<feColorMatrix in="SourceAlpha" type="matrix" values="0 0 0 0 0 0 0 0 0 0 0 0 0 0 0 0 0 0 127 0" result="hardAlpha"/>
<feOffset dy="12"/>
<feGaussianBlur stdDeviation="12"/>
<feColorMatrix type="matrix" values="0 0 0 0 0 0 0 0 0 0 0 0 0 0 0 0 0 0 0.1 0"/>
<feBlend mode="normal" in2="BackgroundImageFix" result="effect1_dropShadow_1291_5205"/>
<feBlend mode="normal" in="SourceGraphic" in2="effect1_dropShadow_1291_5205" result="shape"/>
</filter>
<filter id="filter1_d_1291_5205" x="12.4097" y="0.720703" width="111.952" height="113.558" filterUnits="userSpaceOnUse" color-interpolation-filters="sRGB">
<feFlood flood-opacity="0" result="BackgroundImageFix"/>
<feColorMatrix in="SourceAlpha" type="matrix" values="0 0 0 0 0 0 0 0 0 0 0 0 0 0 0 0 0 0 127 0" result="hardAlpha"/>
<feOffset dx="-6"/>
<feGaussianBlur stdDeviation="20"/>
<feColorMatrix type="matrix" values="0 0 0 0 0.00392157 0 0 0 0 0.0431373 0 0 0 0 0.117647 0 0 0 0.3 0"/>
<feBlend mode="normal" in2="BackgroundImageFix" result="effect1_dropShadow_1291_5205"/>
<feBlend mode="normal" in="SourceGraphic" in2="effect1_dropShadow_1291_5205" result="shape"/>
</filter>
</defs>
</svg>
