<svg width="21" height="21" viewBox="0 0 21 21" fill="none" xmlns="http://www.w3.org/2000/svg">
<path d="M18.0365 11.4625L18.0015 11.7461L18.228 11.9202L20.4826 13.6527L20.4825 13.6528L20.4927 13.6603C20.4935 13.6609 20.4943 13.6615 20.495 13.662C20.4942 13.6649 20.4925 13.6694 20.4893 13.6754L18.3323 17.3059L18.3323 17.3058L18.3281 17.3132C18.323 17.3221 18.3166 17.3271 18.3079 17.3301C18.2983 17.3334 18.2878 17.3334 18.2787 17.3302L15.5961 16.2818L15.3398 16.1816L15.118 16.3446C14.5932 16.7304 14.0229 17.0622 13.4072 17.3065L13.1384 17.4131L13.0968 17.6992L12.6918 20.4817L12.6903 20.4921L12.6901 20.4939C12.6849 20.4965 12.6751 20.5 12.6601 20.5H8.33995C8.32132 20.5 8.31322 20.4947 8.30903 20.4912C8.30476 20.4876 8.29694 20.4792 8.29178 20.4615L7.88971 17.6992L7.84807 17.4131L7.57935 17.3065C6.96211 17.0616 6.40578 16.7426 5.86999 16.3457L5.64785 16.1812L5.39038 16.2818L2.72326 17.3242C2.70356 17.3288 2.68502 17.3273 2.67267 17.3232C2.66648 17.3211 2.66338 17.3189 2.66225 17.318C2.66149 17.3174 2.66027 17.3164 2.65842 17.3132L2.65849 17.3131L2.65416 17.3059L0.502076 13.6836C0.500283 13.6789 0.499113 13.6716 0.500801 13.6631C0.501731 13.6584 0.503229 13.6551 0.504327 13.6533C0.504962 13.6522 0.505448 13.6516 0.505802 13.6513L2.78319 11.922L3.02309 11.7398L2.97418 11.4426C2.92495 11.1434 2.89981 10.8163 2.89981 10.5C2.89981 10.1957 2.93617 9.8704 2.98768 9.55745L3.03659 9.26021L2.79669 9.07804L0.515137 7.34554L0.515194 7.34547L0.50734 7.33974C0.506454 7.3391 0.505686 7.3385 0.505026 7.33796C0.505839 7.33507 0.507455 7.33058 0.510674 7.32461L2.66766 3.69414L2.66772 3.69418L2.67193 3.68682C2.677 3.67794 2.68337 3.67294 2.69207 3.66992C2.70174 3.66656 2.71222 3.66662 2.72137 3.66978L5.40388 4.7182L5.66024 4.81839L5.88202 4.65537C6.40676 4.26964 6.97711 3.93783 7.59285 3.6935L7.86157 3.58686L7.90321 3.30077L8.30777 0.521401C8.30897 0.514363 8.31076 0.510648 8.3116 0.509136C8.31254 0.507452 8.31338 0.506568 8.31411 0.505946C8.31486 0.505316 8.31651 0.504099 8.31983 0.502896C8.32306 0.501724 8.32946 0.5 8.33995 0.5H12.6601C12.6811 0.5 12.6937 0.506909 12.6994 0.511569C12.7022 0.513909 12.7036 0.515801 12.7042 0.516813C12.7046 0.517519 12.7053 0.518833 12.7058 0.521672L13.1103 3.30077L13.1519 3.58686L13.4207 3.6935C14.0379 3.93843 14.5942 4.25741 15.13 4.65428L15.3521 4.81883L15.6096 4.7182L18.2767 3.6758C18.2964 3.67116 18.315 3.67273 18.3273 3.67684C18.3335 3.67891 18.3366 3.68107 18.3378 3.68197C18.3385 3.68257 18.3397 3.68358 18.3416 3.68682L18.3415 3.68686L18.3458 3.69414L20.4979 7.31636C20.4997 7.32113 20.5009 7.32835 20.4992 7.3369C20.4983 7.34162 20.4968 7.34491 20.4957 7.34673C20.495 7.3478 20.4945 7.34837 20.4942 7.34871L18.2168 9.07804L17.9769 9.26022L18.0258 9.55745C18.0751 9.85704 18.1002 10.1711 18.1002 10.5C18.1002 10.8291 18.0751 11.1493 18.0365 11.4625ZM5.94991 10.5C5.94991 12.955 8.00969 14.9375 10.5 14.9375C12.9903 14.9375 15.0501 12.955 15.0501 10.5C15.0501 8.04504 12.9903 6.0625 10.5 6.0625C8.00969 6.0625 5.94991 8.04504 5.94991 10.5Z" fill="#FCFCFD" stroke="#2074F1"/>
</svg>
